HIERARCHY
ROOT newVegas:Hips
{
	OFFSET 0.000000 96.479958 0.000000
	CHANNELS 6 Xposition Yposition Zposition Xrotation Yrotation Zrotation
	JOINT newVegas:Pelvis
	{
		OFFSET 0.000000 0.000000 0.000000
		CHANNELS 3 Xrotation Yrotation Zrotation
		JOINT newVegas:LeftUpLeg
		{
			OFFSET 18.735201 -5.666702 -4.541200
			CHANNELS 3 Xrotation Yrotation Zrotation
			JOINT newVegas:LeftLeg
			{
				OFFSET -0.021200 -31.938179 0.493100
				CHANNELS 3 Xrotation Yrotation Zrotation
				JOINT newVegas:LeftFoot
				{
					OFFSET 0.021200 -31.938179 -4.336299
					CHANNELS 3 Xrotation Yrotation Zrotation
					JOINT newVegas:LeftToeBase
					{
						OFFSET 0.943001 -26.722000 15.023500
						CHANNELS 3 Xrotation Yrotation Zrotation
						End Site
						{
							OFFSET 0.000000 30.670183 0.000000
						}
					}
				}
				JOINT newVegas:Left_PantLeg
				{
					OFFSET 0.663870 -9.044666 -1.108900
					CHANNELS 3 Xrotation Yrotation Zrotation
					End Site
					{
						OFFSET 1.415995 20.635357 0.000000
					}
				}
			}
		}
		JOINT newVegas:RightUpLeg
		{
			OFFSET -18.735201 -5.666702 -4.541200
			CHANNELS 3 Xrotation Yrotation Zrotation
			JOINT newVegas:RightLeg
			{
				OFFSET 0.018946 -31.938133 0.493100
				CHANNELS 3 Xrotation Yrotation Zrotation
				JOINT newVegas:RightFoot
				{
					OFFSET -0.018946 -31.938126 -4.336299
					CHANNELS 3 Xrotation Yrotation Zrotation
					JOINT newVegas:RightToeBase
					{
						OFFSET -0.943001 -26.722004 15.023500
						CHANNELS 3 Xrotation Yrotation Zrotation
						End Site
						{
							OFFSET 0.000000 30.670187 0.000000
						}
					}
				}
				JOINT newVegas:Right_PantLeg
				{
					OFFSET -0.661674 -9.044716 -1.108900
					CHANNELS 3 Xrotation Yrotation Zrotation
					End Site
					{
						OFFSET -1.415958 20.635269 0.000000
					}
				}
			}
		}
	}
	JOINT newVegas:Spine
	{
		OFFSET 0.000000 10.199997 -0.299500
		CHANNELS 3 Xrotation Yrotation Zrotation
		JOINT newVegas:Spine1
		{
			OFFSET 0.000000 11.900002 -1.516600
			CHANNELS 3 Xrotation Yrotation Zrotation
			JOINT newVegas:Spine2
			{
				OFFSET 0.000000 13.600006 -2.842500
				CHANNELS 3 Xrotation Yrotation Zrotation
				JOINT newVegas:Neck
				{
					OFFSET 0.000000 9.624100 -2.890100
					CHANNELS 3 Xrotation Yrotation Zrotation
					JOINT newVegas:Head
					{
						OFFSET 0.000000 14.068802 -1.351900
						CHANNELS 3 Xrotation Yrotation Zrotation
						JOINT newVegas:Hair_Back
						{
							OFFSET 0.000000 3.231903 -17.524799
							CHANNELS 3 Xrotation Yrotation Zrotation
							End Site
							{
								OFFSET 0.000000 19.849884 0.000000
							}
						}
						JOINT newVegas:Hair_Front
						{
							OFFSET 0.000000 31.260406 4.573800
							CHANNELS 3 Xrotation Yrotation Zrotation
							JOINT newVegas:Hair_Front1
							{
								OFFSET 0.000000 2.284103 11.993300
								CHANNELS 3 Xrotation Yrotation Zrotation
								JOINT newVegas:Hair_Front2
								{
									OFFSET 0.000000 2.284103 11.993300
									CHANNELS 3 Xrotation Yrotation Zrotation
									End Site
									{
										OFFSET 0.000000 12.208862 0.000000
									}
								}
							}
						}
						JOINT newVegas:Jowel
						{
							OFFSET 0.000000 -7.458206 6.864100
							CHANNELS 3 Xrotation Yrotation Zrotation
							End Site
							{
								OFFSET 0.000000 19.849884 0.000000
							}
						}
					}
				}
				JOINT newVegas:LeftShoulder
				{
					OFFSET 15.263000 10.923401 -0.547700
					CHANNELS 3 Xrotation Yrotation Zrotation
					JOINT newVegas:LeftArm
					{
						OFFSET 25.438599 -2.830597 -13.032500
						CHANNELS 3 Xrotation Yrotation Zrotation
						JOINT newVegas:LeftForeArm
						{
							OFFSET 29.960503 0.000000 0.000000
							CHANNELS 3 Xrotation Yrotation Zrotation
							JOINT newVegas:LeftHand
							{
								OFFSET 27.849251 0.000000 0.000000
								CHANNELS 3 Xrotation Yrotation Zrotation
								JOINT newVegas:LeftHandThumb1
								{
									OFFSET 4.487587 -3.305161 6.305391
									CHANNELS 3 Xrotation Yrotation Zrotation
									JOINT newVegas:LeftHandThumb2
									{
										OFFSET 5.480453 -3.164139 3.164143
										CHANNELS 3 Xrotation Yrotation Zrotation
										JOINT newVegas:LeftHandThumb3
										{
											OFFSET 5.159721 -2.978973 2.978967
											CHANNELS 3 Xrotation Yrotation Zrotation
											End Site
											{
												OFFSET 2.494507 5.926697 1.738678
											}
										}
									}
								}
								JOINT newVegas:LeftHandIndex1
								{
									OFFSET 18.578728 -0.527832 5.208049
									CHANNELS 3 Xrotation Yrotation Zrotation
									JOINT newVegas:LeftHandIndex2
									{
										OFFSET 3.192009 0.000000 0.000000
										CHANNELS 3 Xrotation Yrotation Zrotation
										JOINT newVegas:LeftHandIndex3
										{
											OFFSET 3.835129 0.000000 0.000000
											CHANNELS 3 Xrotation Yrotation Zrotation
											End Site
											{
												OFFSET -0.034599 3.816971 0.371180
											}
										}
									}
								}
								JOINT newVegas:LeftHandMiddle1
								{
									OFFSET 18.476105 0.000000 0.000000
									CHANNELS 3 Xrotation Yrotation Zrotation
									JOINT newVegas:LeftHandMiddle2
									{
										OFFSET 3.324875 0.000000 0.000000
										CHANNELS 3 Xrotation Yrotation Zrotation
										JOINT newVegas:LeftHandMiddle3
										{
											OFFSET 4.596550 0.000000 0.000000
											CHANNELS 3 Xrotation Yrotation Zrotation
											End Site
											{
												OFFSET 0.057701 4.578827 0.399218
											}
										}
									}
								}
								JOINT newVegas:LeftHandRing1
								{
									OFFSET 17.732719 0.121887 -4.201567
									CHANNELS 3 Xrotation Yrotation Zrotation
									JOINT newVegas:LeftHandRing2
									{
										OFFSET 2.733170 0.000000 0.000000
										CHANNELS 3 Xrotation Yrotation Zrotation
										JOINT newVegas:LeftHandRing3
										{
											OFFSET 3.178268 0.000000 0.000000
											CHANNELS 3 Xrotation Yrotation Zrotation
											End Site
											{
												OFFSET 0.119102 3.170624 0.185394
											}
										}
									}
								}
								JOINT newVegas:LeftHandPinky1
								{
									OFFSET 15.989624 -0.606689 -7.535461
									CHANNELS 3 Xrotation Yrotation Zrotation
									JOINT newVegas:LeftHandPinky2
									{
										OFFSET 2.538986 0.000000 0.000000
										CHANNELS 3 Xrotation Yrotation Zrotation
										JOINT newVegas:LeftHandPinky3
										{
											OFFSET 2.593102 0.000000 0.000000
											CHANNELS 3 Xrotation Yrotation Zrotation
											End Site
											{
												OFFSET -0.150902 2.584198 0.152708
											}
										}
									}
								}
							}
							JOINT newVegas:Left_Sleeve
							{
								OFFSET 0.267448 -0.649796 0.577675
								CHANNELS 3 Xrotation Yrotation Zrotation
								End Site
								{
									OFFSET 0.000000 15.991241 0.000000
								}
							}
							JOINT newVegas:Left_CapeC
							{
								OFFSET 15.715958 -8.608795 -6.935905
								CHANNELS 3 Xrotation Yrotation Zrotation
								JOINT newVegas:Left_CapeC1
								{
									OFFSET 0.000000 -8.688499 0.000000
									CHANNELS 3 Xrotation Yrotation Zrotation
									End Site
									{
										OFFSET 0.000000 8.688499 0.000000
									}
								}
							}
						}
						JOINT newVegas:Left_CapeB
						{
							OFFSET 26.118385 -8.608795 -7.079235
							CHANNELS 3 Xrotation Yrotation Zrotation
							JOINT newVegas:Left_CapeB1
							{
								OFFSET 0.000000 -8.688499 0.000000
								CHANNELS 3 Xrotation Yrotation Zrotation
								End Site
								{
									OFFSET 0.000000 8.688499 0.000000
								}
							}
						}
						JOINT newVegas:Left_CapeA
						{
							OFFSET 5.115639 -8.608795 -10.395809
							CHANNELS 3 Xrotation Yrotation Zrotation
							JOINT newVegas:Left_CapeA1
							{
								OFFSET 0.000000 -8.688499 0.000000
								CHANNELS 3 Xrotation Yrotation Zrotation
								End Site
								{
									OFFSET 0.000000 8.688499 0.000000
								}
							}
						}
					}
				}
				JOINT newVegas:RightShoulder
				{
					OFFSET -15.263000 10.923401 -0.547700
					CHANNELS 3 Xrotation Yrotation Zrotation
					JOINT newVegas:RightArm
					{
						OFFSET -25.438599 -2.830597 -13.032500
						CHANNELS 3 Xrotation Yrotation Zrotation
						JOINT newVegas:RightForeArm
						{
							OFFSET -29.960503 0.000000 0.000000
							CHANNELS 3 Xrotation Yrotation Zrotation
							JOINT newVegas:RightHand
							{
								OFFSET -27.849251 0.000000 0.000000
								CHANNELS 3 Xrotation Yrotation Zrotation
								JOINT newVegas:RightHandThumb1
								{
									OFFSET -4.487587 -3.305161 6.305391
									CHANNELS 3 Xrotation Yrotation Zrotation
									JOINT newVegas:RightHandThumb2
									{
										OFFSET -5.480453 -3.164139 3.164143
										CHANNELS 3 Xrotation Yrotation Zrotation
										JOINT newVegas:RightHandThumb3
										{
											OFFSET -5.159721 -2.978973 2.978967
											CHANNELS 3 Xrotation Yrotation Zrotation
											End Site
											{
												OFFSET -2.494507 5.926697 1.738678
											}
										}
									}
								}
								JOINT newVegas:RightHandIndex1
								{
									OFFSET -18.578728 -0.527832 5.208049
									CHANNELS 3 Xrotation Yrotation Zrotation
									JOINT newVegas:RightHandIndex2
									{
										OFFSET -3.192009 0.000000 0.000000
										CHANNELS 3 Xrotation Yrotation Zrotation
										JOINT newVegas:RightHandIndex3
										{
											OFFSET -3.835129 0.000000 0.000000
											CHANNELS 3 Xrotation Yrotation Zrotation
											End Site
											{
												OFFSET 0.034599 3.816971 0.371180
											}
										}
									}
								}
								JOINT newVegas:RightHandMiddle1
								{
									OFFSET -18.476105 0.000000 0.000000
									CHANNELS 3 Xrotation Yrotation Zrotation
									JOINT newVegas:RightHandMiddle2
									{
										OFFSET -3.324875 0.000000 0.000000
										CHANNELS 3 Xrotation Yrotation Zrotation
										JOINT newVegas:RightHandMiddle3
										{
											OFFSET -4.596550 0.000000 0.000000
											CHANNELS 3 Xrotation Yrotation Zrotation
											End Site
											{
												OFFSET -0.057701 4.578827 0.399218
											}
										}
									}
								}
								JOINT newVegas:RightHandRing1
								{
									OFFSET -17.732719 0.121887 -4.201567
									CHANNELS 3 Xrotation Yrotation Zrotation
									JOINT newVegas:RightHandRing2
									{
										OFFSET -2.733170 0.000000 0.000000
										CHANNELS 3 Xrotation Yrotation Zrotation
										JOINT newVegas:RightHandRing3
										{
											OFFSET -3.178268 0.000000 0.000000
											CHANNELS 3 Xrotation Yrotation Zrotation
											End Site
											{
												OFFSET -0.119102 3.170624 0.185394
											}
										}
									}
								}
								JOINT newVegas:RightHandPinky1
								{
									OFFSET -15.989624 -0.606689 -7.535461
									CHANNELS 3 Xrotation Yrotation Zrotation
									JOINT newVegas:RightHandPinky2
									{
										OFFSET -2.538986 0.000000 0.000000
										CHANNELS 3 Xrotation Yrotation Zrotation
										JOINT newVegas:RightHandPinky3
										{
											OFFSET -2.593102 0.000000 0.000000
											CHANNELS 3 Xrotation Yrotation Zrotation
											End Site
											{
												OFFSET 0.150902 2.584198 0.152708
											}
										}
									}
								}
							}
							JOINT newVegas:Right_CapeC
							{
								OFFSET -15.715958 -8.608795 -6.935905
								CHANNELS 3 Xrotation Yrotation Zrotation
								JOINT newVegas:Right_CapeC1
								{
									OFFSET 0.000000 -8.688499 0.000000
									CHANNELS 3 Xrotation Yrotation Zrotation
									End Site
									{
										OFFSET 0.000000 8.688499 0.000000
									}
								}
							}
							JOINT newVegas:Right_Sleeve
							{
								OFFSET -0.267448 -0.649994 0.577675
								CHANNELS 3 Xrotation Yrotation Zrotation
								End Site
								{
									OFFSET 0.000000 15.991302 0.000000
								}
							}
						}
						JOINT newVegas:Right_CapeA
						{
							OFFSET -5.115540 -8.608795 -10.395824
							CHANNELS 3 Xrotation Yrotation Zrotation
							JOINT newVegas:Right_CapeA1
							{
								OFFSET 0.000000 -8.688499 0.000000
								CHANNELS 3 Xrotation Yrotation Zrotation
								End Site
								{
									OFFSET 0.000000 8.688499 0.000000
								}
							}
						}
						JOINT newVegas:Right_CapeB
						{
							OFFSET -26.118187 -8.608795 -7.079266
							CHANNELS 3 Xrotation Yrotation Zrotation
							JOINT newVegas:Right_CapeB1
							{
								OFFSET 0.000000 -8.688499 0.000000
								CHANNELS 3 Xrotation Yrotation Zrotation
								End Site
								{
									OFFSET 0.000000 8.688499 0.000000
								}
							}
						}
					}
				}
				JOINT newVegas:Left_Collar
				{
					OFFSET 18.625099 8.655502 8.828100
					CHANNELS 3 Xrotation Yrotation Zrotation
					JOINT newVegas:Left_Collar1
					{
						OFFSET 14.783401 10.540405 -1.259500
						CHANNELS 3 Xrotation Yrotation Zrotation
						End Site
						{
							OFFSET 0.000000 18.199875 0.000000
						}
					}
				}
				JOINT newVegas:Collar_Back
				{
					OFFSET 0.000000 15.630707 -20.132601
					CHANNELS 3 Xrotation Yrotation Zrotation
					End Site
					{
						OFFSET 0.000000 22.523010 0.000000
					}
				}
				JOINT newVegas:Left_Peck
				{
					OFFSET 17.239599 -5.132599 25.482599
					CHANNELS 3 Xrotation Yrotation Zrotation
					End Site
					{
						OFFSET 0.000000 22.523010 0.000000
					}
				}
				JOINT newVegas:Right_Peck
				{
					OFFSET -17.239599 -5.132202 25.482599
					CHANNELS 3 Xrotation Yrotation Zrotation
					End Site
					{
						OFFSET 0.000000 22.523010 0.000000
					}
				}
				JOINT newVegas:Right_Collar
				{
					OFFSET -18.625099 8.655792 8.828100
					CHANNELS 3 Xrotation Yrotation Zrotation
					JOINT newVegas:Right_Collar1
					{
						OFFSET -14.783401 10.539993 -1.259500
						CHANNELS 3 Xrotation Yrotation Zrotation
						End Site
						{
							OFFSET 0.000000 18.199631 0.000000
						}
					}
				}
			}
		}
		JOINT newVegas:Belly
		{
			OFFSET 0.000000 -6.540398 9.014299
			CHANNELS 3 Xrotation Yrotation Zrotation
			End Site
			{
				OFFSET 0.000000 11.566666 0.000000
			}
		}
	}
	JOINT newVegas:ElvisFacialAnim_Joint
	{
		OFFSET 1.000000 -95.330101 -8.825800
		CHANNELS 3 Xrotation Yrotation Zrotation
		End Site
		{
			OFFSET 0.000000 35.315800 0.000000
		}
	}
}
MOTION
Frames: 4
Frame Time: 0.033333
-0.081452 52.772362 5.521566 -8.490482 5.998405 -1.610234 0.000000 0.000000 -0.000000 -104.315437 -16.368487 6.126219 133.948151 -4.933479 -3.162634 4.467602 -7.198040 -2.905438 0.000000 0.000000 0.000000 0.000001 0.000000 -0.000000 -98.207909 13.496088 -12.881293 132.145309 1.223900 2.654475 3.282479 14.743860 2.739889 0.000001 0.000000 0.000000 -0.000000 -0.000001 0.000000 5.946368 -0.748816 0.280483 11.903129 -1.055116 1.055022 11.903123 -1.055115 1.055022 0.561307 0.595496 -0.329689 0.561299 0.595497 -0.329689 0.000002 -0.000000 0.000000 0.561374 0.595496 -0.329690 0.561448 0.595502 -0.329692 0.000002 -0.000001 0.000000 0.000002 -0.000000 0.000000 0.021184 4.513788 8.645484 24.020573 -14.384056 -65.747353 0.067121 -49.140629 -0.008675 55.964863 0.508006 4.365906 -6.902940 -1.296515 10.377277 3.566742 9.249840 2.239610 -0.000000 -0.000002 -0.000005 -5.352084 5.366639 -18.345828 0.093730 0.391752 -20.984691 -0.000001 -0.000000 -0.000001 -0.256973 1.576494 -7.520899 -0.042706 -0.538973 -6.622973 0.000000 0.000001 0.000000 0.657654 6.201233 -13.965700 -0.429087 -2.021145 -24.466077 0.000001 -0.000000 -0.000002 1.521410 1.249952 -11.551402 -0.175236 -1.648381 -13.949918 -0.000000 0.000002 0.000001 0.000001 0.000000 0.000001 0.000001 0.000000 0.000001 -0.000000 0.000001 0.000001 -0.000001 -0.000002 0.000002 -0.000001 -0.000002 0.000000 -0.000001 -0.000002 0.000002 -0.000002 -0.000003 0.000001 1.244731 -6.941304 1.460049 51.039791 40.359328 37.455036 0.056725 47.667692 0.006399 22.917609 0.121720 -10.830172 -23.619385 -12.868320 -1.631700 -1.502699 -4.509347 -2.740604 0.000004 -0.000001 0.000001 -7.174776 2.027772 22.240334 0.002050 -0.128184 1.828299 0.000000 -0.000000 0.000000 -1.543863 0.278015 21.369720 -0.011893 -0.001784 0.001358 0.000001 -0.000001 -0.000002 3.807819 5.122647 22.297725 -0.140159 0.000052 0.000912 -0.000001 0.000001 -0.000003 2.945272 4.555425 19.058480 -0.020571 1.028890 5.739822 -0.000000 0.000003 -0.000001 0.000001 0.000000 -0.000000 0.000001 0.000000 -0.000000 0.000001 0.000000 -0.000001 -0.000000 -0.000004 0.000001 -0.000000 -0.000003 -0.000000 -0.000000 -0.000004 0.000001 -0.000000 -0.000003 0.000001 0.000001 0.000000 -0.000000 0.000001 0.000000 -0.000000 0.000001 0.000000 -0.000000 0.000001 0.000000 -0.000000 0.000001 0.000000 -0.000000 0.000001 0.000000 -0.000000 0.000001 0.000000 -0.000000 0.000000 0.000000 -0.000000 0.000000 0.000000 -0.000000 
-0.091564 52.776741 5.543200 -8.480393 5.983862 -1.593809 -0.000001 0.000000 -0.000000 -104.325313 -16.371970 6.178110 133.900750 -4.987208 -3.173127 4.622891 -7.107050 -2.905150 0.000000 -0.000001 0.000000 0.000001 -0.000001 -0.000000 -98.189570 13.498622 -12.854359 132.184842 1.188820 2.647994 3.185269 14.801614 2.746402 -0.000001 -0.000000 0.000000 0.000002 0.000001 -0.000000 5.954463 -0.736607 0.278148 11.919033 -1.032470 1.047317 11.919034 -1.032471 1.047317 0.530330 0.590012 -0.323293 0.530353 0.590013 -0.323295 0.000002 -0.000000 0.000000 0.530267 0.590011 -0.323293 0.530473 0.590011 -0.323295 0.000001 0.000000 0.000000 0.000002 -0.000000 0.000000 0.021130 4.517159 8.646219 23.862968 -14.307470 -65.721610 0.067900 -48.749485 -0.008986 55.919083 0.259905 4.481492 -6.316611 -1.299529 10.290354 3.488139 9.612835 1.939530 0.000001 0.000000 -0.000004 -5.362042 5.372144 -17.926914 0.092076 0.388491 -20.762655 -0.000001 -0.000002 0.000002 -0.241854 1.617559 -7.091788 -0.042202 -0.534307 -6.566109 0.000000 -0.000001 0.000000 0.673980 6.235725 -14.052407 -0.444324 -2.044674 -24.767700 0.000002 -0.000001 -0.000001 1.526493 1.264181 -11.438216 -0.176294 -1.652514 -13.986481 0.000000 -0.000002 -0.000001 -0.000002 0.000000 -0.000001 -0.000002 0.000000 -0.000001 -0.000002 0.000000 -0.000001 0.000001 0.000000 0.000003 0.000001 -0.000001 0.000002 0.000001 0.000000 0.000003 -0.000000 -0.000002 0.000002 1.248097 -6.936511 1.488963 50.816368 40.241497 37.663190 0.057362 47.709431 0.006440 23.341104 0.153568 -10.713235 -23.620701 -12.870629 -1.647830 -1.515605 -4.504161 -2.752795 -0.000000 -0.000000 -0.000000 -7.173836 2.029900 22.229974 0.001969 -0.127069 1.798766 -0.000000 -0.000000 0.000002 -1.536063 0.299584 21.346573 -0.011875 0.000075 0.001195 0.000001 -0.000001 0.000000 3.818165 5.160165 22.257123 -0.140211 -0.001615 0.001059 -0.000001 -0.000001 -0.000002 2.960814 4.612424 19.004513 -0.020036 1.023790 5.710710 0.000000 0.000005 0.000001 -0.000001 -0.000000 0.000001 -0.000001 0.000000 0.000000 -0.000001 -0.000000 0.000001 0.000001 -0.000002 -0.000000 0.000001 -0.000001 -0.000003 0.000001 -0.000002 -0.000000 0.000001 -0.000001 -0.000002 0.000001 -0.000000 0.000000 0.000001 -0.000000 0.000000 0.000001 -0.000000 0.000000 0.000001 -0.000000 0.000000 0.000001 -0.000000 0.000000 0.000001 -0.000000 0.000000 0.000001 -0.000000 0.000000 0.000000 -0.000000 -0.000000 -0.000001 0.000000 -0.000000 
-0.100408 52.779129 5.578466 -8.489913 5.979338 -1.581205 -0.000000 0.000000 -0.000000 -104.310943 -16.382374 6.242506 133.877623 -5.049549 -3.183869 4.750700 -7.030144 -2.888227 0.000001 0.000001 0.000000 0.000004 -0.000001 0.000000 -98.172201 13.503715 -12.829209 132.214827 1.144421 2.640898 3.179356 14.877520 2.742194 -0.000001 -0.000000 0.000000 -0.000001 -0.000001 0.000000 5.965054 -0.724720 0.276048 11.940001 -1.006048 1.045556 11.940001 -1.006049 1.045556 0.543895 0.574302 -0.309089 0.543830 0.574303 -0.309095 -0.000002 0.000000 0.000000 0.543864 0.574300 -0.309090 0.543888 0.574304 -0.309092 -0.000000 -0.000000 0.000000 -0.000002 0.000000 0.000000 0.021226 4.521997 8.640051 23.831012 -14.305435 -65.705334 0.068838 -48.732406 -0.009509 55.882545 0.213093 4.395362 -5.892124 -1.350544 10.319047 3.410347 9.716169 1.788565 0.000001 -0.000001 -0.000006 -5.369239 5.376720 -17.537262 0.090454 0.385264 -20.541135 -0.000001 -0.000002 -0.000000 -0.228704 1.651748 -6.643017 -0.040876 -0.522706 -6.423659 0.000000 -0.000001 -0.000000 0.685432 6.272025 -13.985524 -0.450427 -2.052975 -24.874456 0.000002 0.000001 0.000000 1.533563 1.288290 -11.249608 -0.174088 -1.644086 -13.910917 -0.000001 -0.000002 -0.000001 -0.000002 -0.000001 -0.000001 -0.000002 -0.000001 -0.000001 -0.000003 -0.000001 -0.000001 -0.000001 -0.000002 -0.000001 -0.000001 -0.000003 -0.000002 -0.000001 -0.000002 -0.000001 -0.000002 -0.000003 -0.000001 1.251930 -6.931124 1.521294 50.515502 40.071186 37.960282 0.058374 47.731957 0.006462 23.766789 0.139653 -10.593500 -23.624282 -12.876886 -1.691654 -1.550620 -4.490035 -2.785892 0.000001 -0.000001 -0.000002 -7.171274 2.035657 22.201771 0.001763 -0.124304 1.727094 -0.000001 0.000001 -0.000001 -1.514781 0.358093 21.283622 -0.011870 0.004584 0.000788 0.000001 -0.000000 -0.000000 3.846475 5.261912 22.146767 -0.140321 -0.005626 0.001417 -0.000002 0.000001 -0.000001 3.003500 4.766971 18.857900 -0.018768 1.011381 5.640051 0.000001 0.000003 0.000001 0.000002 -0.000000 0.000000 0.000002 -0.000001 0.000000 0.000002 -0.000000 -0.000000 0.000000 -0.000002 -0.000001 0.000000 -0.000001 -0.000003 0.000000 -0.000002 -0.000001 0.000000 -0.000001 -0.000003 0.000000 0.000000 0.000000 0.000000 0.000000 0.000000 0.000000 0.000000 0.000000 0.000000 0.000000 0.000000 0.000000 0.000000 0.000000 0.000000 0.000000 0.000000 0.000000 0.000000 0.000000 -0.000000 -0.000000 -0.000000 -0.000000 0.000000 -0.000000 
-0.109226 52.777390 5.619076 -8.491721 5.985504 -1.574081 -0.000000 -0.000000 -0.000000 -104.282666 -16.402482 6.296427 133.890696 -5.111197 -3.192779 4.772612 -6.977458 -2.876549 0.000000 -0.000000 0.000001 -0.000001 0.000000 -0.000000 -98.180985 13.495965 -12.815185 132.239894 1.092272 2.633485 3.229436 14.961943 2.714266 0.000001 -0.000000 0.000000 0.000001 0.000000 -0.000000 5.973252 -0.716088 0.272785 11.956297 -0.982668 1.046159 11.956294 -0.982669 1.046159 0.559880 0.556536 -0.289926 0.559880 0.556537 -0.289927 0.000002 -0.000000 -0.000000 0.559957 0.556536 -0.289927 0.559876 0.556536 -0.289926 -0.000001 0.000000 0.000000 0.000002 -0.000000 -0.000000 0.021246 4.521477 8.642694 23.827094 -14.341934 -65.683163 0.069584 -48.726255 -0.009944 55.868601 0.172630 4.320027 -5.611117 -1.434153 10.437035 3.331886 9.604148 1.758555 0.000001 0.000000 -0.000004 -5.373976 5.380258 -17.178086 0.088863 0.381980 -20.320171 0.000000 -0.000002 -0.000000 -0.217485 1.679857 -6.189600 -0.038978 -0.505419 -6.211713 0.000001 -0.000001 -0.000000 0.692582 6.308936 -13.793156 -0.448732 -2.048461 -24.815927 -0.000001 -0.000001 0.000000 1.541983 1.320010 -11.001478 -0.169248 -1.625224 -13.742309 0.000000 -0.000002 -0.000001 -0.000000 0.000000 -0.000000 -0.000000 0.000000 -0.000000 -0.000001 0.000000 0.000000 -0.000000 -0.000001 0.000002 -0.000000 -0.000002 0.000001 -0.000000 -0.000001 0.000002 -0.000001 -0.000003 0.000002 1.255742 -6.932521 1.548561 50.145777 39.879695 38.344494 0.059138 47.731158 0.006511 24.137875 0.102565 -10.482179 -23.629519 -12.886123 -1.756228 -1.602226 -4.469195 -2.834664 -0.000000 -0.000001 0.000001 -7.167501 2.044186 22.160235 0.001540 -0.120928 1.638538 0.000000 -0.000001 -0.000001 -1.483227 0.444270 21.190788 -0.011795 0.010137 0.000271 -0.000000 0.000000 -0.000002 3.888865 5.411774 21.983963 -0.140473 -0.010618 0.001836 -0.000001 -0.000001 -0.000003 3.067748 4.994509 18.641388 -0.017228 0.996035 5.552741 0.000001 0.000002 -0.000001 0.000002 0.000000 -0.000001 0.000002 0.000000 -0.000001 0.000002 0.000000 -0.000001 -0.000001 -0.000001 0.000001 -0.000001 0.000000 -0.000000 -0.000001 -0.000001 0.000001 -0.000001 0.000001 0.000001 -0.000000 -0.000000 0.000000 -0.000000 -0.000000 0.000000 -0.000000 -0.000000 0.000000 -0.000000 -0.000000 0.000000 -0.000000 -0.000000 0.000000 -0.000000 -0.000000 0.000000 -0.000000 -0.000000 0.000000 0.000000 -0.000000 -0.000000 -0.000000 -0.000000 -0.000000 
